<svg width="41" height="42" viewBox="0 0 41 42" fill="none" xmlns="http://www.w3.org/2000/svg">
    <path d="M1.5 35.25C1.5 32.7304 2.50089 30.3141 4.28249 28.5325C6.06408 26.7509 8.48044 25.75 11 25.75H30C32.5196 25.75 34.9359 26.7509 36.7175 28.5325C38.4991 30.3141 39.5 32.7304 39.5 35.25C39.5 36.5098 38.9996 37.718 38.1088 38.6088C37.218 39.4996 36.0098 40 34.75 40H6.25C4.99022 40 3.78204 39.4996 2.89124 38.6088C2.00044 37.718 1.5 36.5098 1.5 35.25Z"
          fill="#231201" stroke="#231201" stroke-width="3" stroke-linejoin="round"/>
    <path d="M20.625 16.25C24.56 16.25 27.75 13.06 27.75 9.125C27.75 5.18997 24.56 2 20.625 2C16.69 2 13.5 5.18997 13.5 9.125C13.5 13.06 16.69 16.25 20.625 16.25Z"
          fill="#231201" stroke="#231201" stroke-width="3"/>
</svg>
