<svg width="23" height="20" viewBox="0 0 23 20" fill="none" xmlns="http://www.w3.org/2000/svg">
    <path d="M14.55 1.11409e-07C15.105 -0.00017731 15.6396 0.211563 16.0466 0.592774C16.4536 0.973986 16.7029 1.49649 16.7445 2.05556L16.75 2.22222C16.75 2.49437 16.849 2.75704 17.028 2.96041C17.207 3.16379 17.4537 3.29371 17.7213 3.32556L17.85 3.33333H18.95C19.7917 3.33329 20.6017 3.65814 21.2141 4.24143C21.8265 4.82471 22.1951 5.62234 22.2445 6.47111L22.25 6.66667V16.6667C22.25 17.5169 21.9284 18.335 21.351 18.9536C20.7735 19.5722 19.9839 19.9446 19.1436 19.9944L18.95 20H3.55C2.70827 20 1.89833 19.6752 1.28591 19.0919C0.673492 18.5086 0.304882 17.711 0.2555 16.8622L0.25 16.6667V6.66667C0.249953 5.81643 0.571558 4.99832 1.14901 4.37971C1.72647 3.7611 2.51612 3.38877 3.3564 3.33889L3.55 3.33333H4.65C4.94174 3.33333 5.22153 3.21627 5.42782 3.0079C5.63411 2.79952 5.75 2.51691 5.75 2.22222C5.74982 1.66158 5.95945 1.12159 6.33685 0.710502C6.71425 0.299412 7.23153 0.0476038 7.785 0.00555579L7.95 1.11409e-07H14.55ZM11.25 7.77778C10.4323 7.77771 9.64361 8.08434 9.03695 8.63821C8.43028 9.19208 8.04882 9.95375 7.9665 10.7756L7.9544 10.9444L7.95 11.1111L7.9544 11.2778C7.98668 11.9291 8.20743 12.5566 8.58929 13.0825C8.97115 13.6084 9.49735 14.0096 10.1027 14.2364C10.7081 14.4632 11.366 14.5056 11.995 14.3584C12.624 14.2113 13.1965 13.8809 13.6414 13.4084C14.0864 12.9358 14.3844 12.3417 14.4984 11.6998C14.6124 11.0579 14.5375 10.3963 14.283 9.7969C14.0284 9.19755 13.6054 8.68679 13.0663 8.32789C12.5272 7.96899 11.8957 7.77772 11.25 7.77778Z"
          fill="black"/>
</svg>
