<?xml version="1.0" encoding="UTF-8"?>
<svg id="uuid-4df95503-b0c2-4979-ac86-bb0c1ebfdf69" data-name="Layer 2" xmlns="http://www.w3.org/2000/svg" viewBox="0 0 597.98 545.74">
  <defs>
    <style>
      .uuid-efdcdf98-f153-44ae-b175-6fd4d7de619e {
        fill: #acdcb4;
      }

      .uuid-96f02f19-257c-4010-8a5c-31edbe9153b1 {
        fill: #231201;
      }
    </style>
  </defs>
  <g id="uuid-fe55446b-e1ae-49b9-bf27-f26e5171ddb9" data-name="Layer 1">
    <path class="uuid-efdcdf98-f153-44ae-b175-6fd4d7de619e" d="M453.41,153.17l-1.41-31.01C445.04,57.94,387.88,5.33,323.67,1.23c-61.43-3.91-126.99,3.01-188.84.05C65.21,6.82,5.78,61.8,1.4,132.61c-1.96,31.63-1.78,76.22.05,107.93,2.96,51.33,34.16,96.42,80.75,117.55l.18,71.25c.63,15.61,16.02,25.38,30.29,18.34l84.28-74.57,50.8.75,67.92-.9c79.15-3.16,135.12-59.28,138.37-138.36,1.11-27.04-.72-54.39-.64-81.43ZM210.55,310.29c-13.36,0-24.19-10.83-24.19-24.19s10.83-24.19,24.19-24.19,24.19,10.83,24.19,24.19-10.83,24.19-24.19,24.19ZM270.63,182.99c-11.35,12.31-33.92,24.33-38.04,40.88-1.65,6.61.83,18.05-7.14,19.83-3.18.71-29.91.65-32.24-.31-6.17-2.56-4.69-16.42-3.9-21.84,2.25-15.42,10.6-29.61,21.85-40.09,13.94-12.99,32.17-19.76,34.02-41.91,3.74-44.9-55.26-41.99-68.16-12.22-1.65,3.81-2.87,13.17-5.08,15.4-.99.99-4.69,2.29-6.19,2.31-5.62.07-20.95-2.02-26.88-3.15-12.03-2.31-10.28-6.2-8.15-16.9,12.05-60.68,91.96-79.93,136.87-41.89,30.37,25.72,29.14,71.57,3.04,99.89Z"/>
    <path class="uuid-96f02f19-257c-4010-8a5c-31edbe9153b1" d="M374.85,491.28c-55.95-2.23-95.51-41.9-97.81-97.8-.79-19.11.51-38.45.45-57.56l1-21.92c4.92-45.4,45.32-82.59,90.71-85.48,43.42-2.77,89.76,2.13,133.49.04,49.21,3.91,91.21,42.77,94.31,92.82,1.38,22.36,1.26,53.88-.04,76.29-2.1,36.28-24.15,68.16-57.08,83.09l-.13,50.37c-.45,11.03-11.32,17.94-21.41,12.96l-59.57-52.71-35.91.53"/>
  </g>
</svg>