<?xml version="1.0" encoding="UTF-8"?>
<svg id="uuid-98765355-67b8-4b03-97be-63c06276a911" data-name="Layer 2" xmlns="http://www.w3.org/2000/svg" viewBox="0 0 211.08 168.72">
  <g id="uuid-2832c252-cefa-4dca-8dcf-cc4ae3e9201e" data-name="Layer 1">
    <g id="uuid-bf4377c4-681c-4fdd-8e8d-fb93da917ea3" data-name="L9tTRh.tif">
      <g>
        <path d="M26.9.12c2.78-.48,4.9.52,6.88,2.37l154.2,154.14c5.52,7.04-2.24,16.02-9.75,10.25L22.78,11.49c-3.48-3.81-.84-10.52,4.12-11.37Z"/>
        <path d="M32.7,108.08c25.24,25.22,60.21,39.03,95.86,29.59l10.76,10.73c-.24,1.05-8.85,3.26-10.38,3.6-48.53,11.07-93.85-13.49-121.56-52.29C3.27,93.97-.99,89.31.21,81.69c.79-5,11.36-17.52,15.09-21.83,2.03-2.34,16.61-17.71,18.4-17.4,2.23,2.72,7,5.93,8.83,8.65.34.5.61.75.43,1.43-.15.59-6.19,5.33-7.2,6.31-7.94,7.67-15.3,16.64-21.53,25.7,5.4,8.33,11.45,16.5,18.47,23.52Z"/>
        <path d="M184.41,47.7c7.95,7.4,15.98,16.07,21.97,25.18,3.63,5.51,6.11,9.39,3.81,16.19-3.07,9.04-19.8,26.96-27.21,33.67-1.01.91-4.41,4.17-5.4,3.91-2.81-3.42-7.27-6.07-9.1-9.93,10.75-9.43,20.77-19.84,28.19-32.16.05-1.43-7.05-10.7-8.47-12.46-25.28-31.39-65.03-52.11-106-41.16l-9.68-9.29-.54-1.39c.28-1.24,10.61-3.66,12.44-4.05,37.67-7.9,72.67,6.06,100,31.49Z"/>
        <path d="M141.11,89.99c-14.82-14.18-28.92-29.11-43.72-43.33l-1.98-3.25c29.88-8.03,59.28,20.6,50.92,50.66-1.43,1.13-4.42-3.32-5.22-4.08Z"/>
        <path d="M64.46,74.33l1.77.47,48.65,48.64c1.67,2.41-1.62,2.38-3.34,2.7-13.25,2.45-28.83-3.65-37.62-13.63-9.2-10.46-12.56-24.6-9.46-38.17Z"/>
      </g>
    </g>
  </g>
</svg>