<svg width="12" height="12" viewBox="0 0 12 12" fill="none" xmlns="http://www.w3.org/2000/svg">
    <path fill-rule="evenodd" clip-rule="evenodd"
          d="M5.68086 7.2102L9.50274 11.0321C9.70554 11.2349 9.9806 11.3488 10.2674 11.3488C10.5542 11.3488 10.8293 11.2349 11.0321 11.0321C11.2349 10.8293 11.3488 10.5542 11.3488 10.2674C11.3488 9.98061 11.2349 9.70555 11.0321 9.50275L7.20875 5.68088L11.0313 1.859C11.1317 1.75858 11.2113 1.63938 11.2656 1.5082C11.3199 1.37701 11.3479 1.23642 11.3478 1.09444C11.3478 0.952465 11.3198 0.811884 11.2654 0.680726C11.2111 0.549569 11.1314 0.430403 11.031 0.330034C10.9306 0.229664 10.8114 0.150056 10.6802 0.0957541C10.549 0.0414525 10.4084 0.013521 10.2664 0.0135545C10.1244 0.0135879 9.98387 0.0415855 9.85271 0.095949C9.72155 0.150312 9.60239 0.229977 9.50202 0.330394L5.68086 4.15227L1.85899 0.330394C1.75931 0.227097 1.64006 0.144685 1.5082 0.0879665C1.37633 0.0312484 1.23449 0.00135988 1.09095 4.53348e-05C0.947411 -0.00126921 0.805046 0.0260163 0.672164 0.0803098C0.539282 0.134603 0.418543 0.214818 0.316993 0.316272C0.215443 0.417727 0.135115 0.53839 0.0806958 0.671221C0.026277 0.804052 -0.00114271 0.946391 3.64795e-05 1.08993C0.00121567 1.23347 0.0309701 1.37534 0.0875638 1.50726C0.144158 1.63918 0.226457 1.75851 0.32966 1.85828L4.15298 5.68088L0.330381 9.50347C0.227178 9.60325 0.144879 9.72257 0.0882848 9.85449C0.0316911 9.98641 0.00193632 10.1283 0.000757128 10.2718C-0.000422066 10.4154 0.0269977 10.5577 0.0814165 10.6905C0.135835 10.8234 0.216163 10.944 0.317714 11.0455C0.419264 11.1469 0.540003 11.2271 0.672885 11.2814C0.805767 11.3357 0.948132 11.363 1.09167 11.3617C1.23521 11.3604 1.37705 11.3305 1.50892 11.2738C1.64078 11.2171 1.76003 11.1347 1.85971 11.0314L5.68086 7.2102Z"
          fill="#231201"/>
</svg>
