<svg width="40" height="40" viewBox="0 0 40 40" fill="none" xmlns="http://www.w3.org/2000/svg">
    <path d="M37.5 3.74536L27.4912 3.7454V1.25415C27.4912 0.563525 26.9319 0.00415039 26.2412 0.00415039C25.5506 0.00415039 24.9912 0.563525 24.9912 1.25415V3.74478H14.9913V1.25415C14.9913 0.563525 14.4319 0.00415039 13.7413 0.00415039C13.0506 0.00415039 12.4913 0.563525 12.4913 1.25415V3.74478H2.5C1.11937 3.74478 0 4.86415 0 6.24477V37.4948C0 38.8754 1.11937 39.9948 2.5 39.9948H37.5C38.8806 39.9948 40 38.8754 40 37.4948V6.24477C40 4.86474 38.8806 3.74536 37.5 3.74536ZM37.5 37.4948H2.5V6.24477H12.4913V7.50415C12.4913 8.19474 13.0506 8.75415 13.7413 8.75415C14.4319 8.75415 14.9913 8.19474 14.9913 7.50415V6.2454H24.9912V7.50477C24.9912 8.1954 25.5506 8.75477 26.2412 8.75477C26.9319 8.75477 27.4912 8.1954 27.4912 7.50477V6.2454H37.5V37.4948ZM28.75 19.9954H31.25C31.94 19.9954 32.5 19.4354 32.5 18.7454V16.2454C32.5 15.5554 31.94 14.9954 31.25 14.9954H28.75C28.06 14.9954 27.5 15.5554 27.5 16.2454V18.7454C27.5 19.4354 28.06 19.9954 28.75 19.9954ZM28.75 29.9947H31.25C31.94 29.9947 32.5 29.4354 32.5 28.7447V26.2447C32.5 25.5547 31.94 24.9947 31.25 24.9947H28.75C28.06 24.9947 27.5 25.5547 27.5 26.2447V28.7447C27.5 29.436 28.06 29.9947 28.75 29.9947ZM21.25 24.9947H18.75C18.06 24.9947 17.5 25.5547 17.5 26.2447V28.7447C17.5 29.4354 18.06 29.9947 18.75 29.9947H21.25C21.94 29.9947 22.5 29.4354 22.5 28.7447V26.2447C22.5 25.5554 21.94 24.9947 21.25 24.9947ZM21.25 14.9954H18.75C18.06 14.9954 17.5 15.5554 17.5 16.2454V18.7454C17.5 19.4354 18.06 19.9954 18.75 19.9954H21.25C21.94 19.9954 22.5 19.4354 22.5 18.7454V16.2454C22.5 15.5547 21.94 14.9954 21.25 14.9954ZM11.25 14.9954H8.75C8.06 14.9954 7.5 15.5554 7.5 16.2454V18.7454C7.5 19.4354 8.06 19.9954 8.75 19.9954H11.25C11.94 19.9954 12.5 19.4354 12.5 18.7454V16.2454C12.5 15.5547 11.94 14.9954 11.25 14.9954ZM11.25 24.9947H8.75C8.06 24.9947 7.5 25.5547 7.5 26.2447V28.7447C7.5 29.4354 8.06 29.9947 8.75 29.9947H11.25C11.94 29.9947 12.5 29.4354 12.5 28.7447V26.2447C12.5 25.5554 11.94 24.9947 11.25 24.9947Z"
          fill="black"/>
</svg>
